<svg id="Layer_1" data-name="Layer 1" xmlns="http://www.w3.org/2000/svg" viewBox="0 0 512 68"><title>Artboard 1</title><path d="M144.48,27.48a6.86,6.86,0,0,1,1.05.08,5.18,5.18,0,0,1,1.35.41q3.17,1.2,5.91,2t5,1.23c1.5.29,2.84.5,4,.63a26,26,0,0,0,3.14.15c.55,0,1.05,0,1.49-.06l1.12-.12a.56.56,0,0,1,.37-.1c.19,0,.31,0,.37.16a.62.62,0,0,1,.08.37,1.49,1.49,0,0,1-.12.46,1.59,1.59,0,0,1-.3.43l-.67,1.23a8.82,8.82,0,0,0-.54.89l-.32.58c-.09.21-.19.31-.31.31a.32.32,0,0,1-.19-.11,1.33,1.33,0,0,0-.43-.2,9.2,9.2,0,0,0-1.78-.3c-.6,0-1.19-.06-1.79-.06a17.72,17.72,0,0,0-4.29.56c-1.32.36-2.5.71-3.55,1-.74.24-1.68.58-2.81,1l-3.5,1.34q-1.78.69-3.33,1.32c-1,.42-1.83.72-2.39.91a2.71,2.71,0,0,1-.83.15,4.26,4.26,0,0,1-1.77-.32,17.56,17.56,0,0,1-1.7-.8c-.56-.3-1.08-.59-1.56-.89a7,7,0,0,0-1.31-.66l-1.7,1.15c-.59.4-1.24.81-2,1.23s-1.54.85-2.43,1.29-1.91.9-3.06,1.37q-5,1.76-9.69,3t-8.55,2c-2.59.52-4.84.91-6.77,1.19s-3.37.49-4.31.63q-4.43.59-8.63,1c-2.8.28-5.46.49-8,.66s-4.89.28-7.09.35-4.19.12-6,.14l-4.51,0q-1.89,0-2.88-.09a150,150,0,0,1-15.24-1.35q-6.6-1-11.21-2.06-2.71-.59-5-1.27c-1.54-.45-3-.92-4.28-1.41a.25.25,0,0,0-.15-.09c-.17,0-.26.05-.28.15a.49.49,0,0,1-.12.25,2.8,2.8,0,0,1-.13.52,2.08,2.08,0,0,1-.18.58,1.68,1.68,0,0,1-.22.33.77.77,0,0,1-.58.23H21.9c-.86,0-1.74-.07-2.63-.16s-1.75-.19-2.57-.33-1.57-.31-2.25-.48a9.41,9.41,0,0,1-1.63-.57,1.42,1.42,0,0,0-.46-.15c-.16,0-.3.17-.4.52A6.06,6.06,0,0,1,10.25,50a14.86,14.86,0,0,1-2.58,1.76A17.88,17.88,0,0,1,4.82,53c-1,.33-1.79.57-2.49.74A6.78,6.78,0,0,1,1.07,54c-.25,0-.39,0-.43-.13a.31.31,0,0,1,0-.31A1.35,1.35,0,0,1,1,53.2a2.6,2.6,0,0,1,.48-.31c.1-.06.4-.22.89-.46s1.07-.55,1.74-.91,1.4-.77,2.19-1.23,1.53-.93,2.23-1.42,1.31-.95,1.84-1.4a4.17,4.17,0,0,0,1.08-1.26.66.66,0,0,0,.06-.6,2.92,2.92,0,0,0-.31-.47,2,2,0,0,1-.29-.62,1.85,1.85,0,0,1,.08-1,6.56,6.56,0,0,1,.38-1c.2-.43.42-.9.68-1.4a15,15,0,0,1,.87-1.48,10.14,10.14,0,0,1,.93-1.18,4.09,4.09,0,0,1,.92-.62,1.69,1.69,0,0,1,.59-.15,1.15,1.15,0,0,1,.55.14,4.72,4.72,0,0,0,.55.26,37.12,37.12,0,0,0,4.05,2.49c1.36.72,2.7,1.36,4,1.92s2.6,1.05,3.84,1.45,2.4.75,3.46,1.06q5.36,1.29,10.57,2.09c3.48.54,6.83,1,10.07,1.23s6.35.48,9.33.56,5.75.11,8.33.09q3.51,0,6.49-.18c2-.11,3.76-.21,5.29-.33s2.83-.21,3.88-.31S87.61,48,88.06,48q8.86-.72,15.66-1.82t11.89-2.4a81.82,81.82,0,0,0,8.6-2.61A57.58,57.58,0,0,0,130,38.65a28.41,28.41,0,0,0,3.45-2c.78-.56,1.3-1,1.57-1.15s.49-.37.67-.5a1,1,0,0,1,.5-.18.29.29,0,0,1,.29.22,1.6,1.6,0,0,1,.08.53,3.19,3.19,0,0,1-.1.71,3.1,3.1,0,0,1-.24.69,4.87,4.87,0,0,0,1.55.66,8.75,8.75,0,0,0,2.2.24,19,19,0,0,0,2.38-.24,24.77,24.77,0,0,0,3-.66c1.13-.3,2.38-.7,3.74-1.2s2.9-1.08,4.6-1.78a39.83,39.83,0,0,0-5.55-1.59,20.66,20.66,0,0,0-4.08-.41,12.63,12.63,0,0,0-2.23.22,7.21,7.21,0,0,0-1.57.46,6.13,6.13,0,0,0-1,.53l-.6.42a.84.84,0,0,1-.32.14h-.24c-.2,0-.28-.09-.24-.35a4.71,4.71,0,0,1,.21-.82,10.71,10.71,0,0,1,.83-1.76,6.22,6.22,0,0,1,1-1.3,6.72,6.72,0,0,1,1.2-.9,11.85,11.85,0,0,1,1.28-.65,5.12,5.12,0,0,1,1.12-.4A5.07,5.07,0,0,1,144.48,27.48ZM19,44.67l.19,0a.92.92,0,0,0,.23-.09.23.23,0,0,0,.12-.17.45.45,0,0,0-.1-.29l-.85-.8c-.36-.33-.71-.68-1.06-1L16.05,41a2.05,2.05,0,0,0-.34-.38.74.74,0,0,0-.52-.17,2,2,0,0,0-1,.34,3.4,3.4,0,0,0-1.13,1.15,1.76,1.76,0,0,0-.14,1c.19.1.45.25.77.45A8.8,8.8,0,0,0,15,44a10,10,0,0,0,1.75.49A11.28,11.28,0,0,0,19,44.67Zm8.83,6.22a.32.32,0,0,1,.36.29,1.73,1.73,0,0,1,0,.6,1.28,1.28,0,0,1-.18.58,2.12,2.12,0,0,1-.33.42,4,4,0,0,1-.32.29,1.93,1.93,0,0,1-.21.16s-.32.09-.9.29l-2.17.75-2.86,1c-1,.37-2,.73-2.93,1.09s-1.74.67-2.43.92-1.14.44-1.33.54a.48.48,0,0,1-.3.12.26.26,0,0,1-.3-.23,1.78,1.78,0,0,1,0-.52,4.21,4.21,0,0,1,.09-.55q.06-.27.09-.36a4.1,4.1,0,0,1,.25-.4.42.42,0,0,1,.34-.21s.36-.11,1-.33l2.24-.81c.89-.33,1.87-.7,2.92-1.11l3-1.14q1.39-.52,2.4-.87L27.4,51A.76.76,0,0,1,27.83,50.89Zm199.65-26a4.79,4.79,0,0,1,2.15.43l3.22,1.93q1.92,1.17,4.21,2.28a37.83,37.83,0,0,0,4.78,1.92,17.74,17.74,0,0,0,5,.91,1.89,1.89,0,0,1,.64.12.26.26,0,0,1,.17.25.78.78,0,0,1-.15.35c-.1.14-.19.28-.3.42s-.31.44-.44.64l-.39.59c-.24.31-.47.59-.67.86s-.34.43-.4.49a.94.94,0,0,1-.31.16,3.44,3.44,0,0,1-.55-.25,33.15,33.15,0,0,0-6.34-1.54,36.89,36.89,0,0,0-4.95-.34,20.14,20.14,0,0,0-2.79.16,8,8,0,0,0-1.34.27c-.2.05-.31.09-.33.13s0,.12.06.24.07.39.15.79.16.87.23,1.41.11,1.12.13,1.71a7.5,7.5,0,0,1-.14,1.63,3.18,3.18,0,0,1-.54,1.17,2.06,2.06,0,0,1-.77.61,2.9,2.9,0,0,1-.86.24,7.86,7.86,0,0,1-.79,0,5,5,0,0,1-1.3-.17,16.71,16.71,0,0,1-2-.54,12.51,12.51,0,0,1-1.94-.8,2.72,2.72,0,0,1-1.22-1c-.06-.14-.14-.22-.24-.22l-.16,0s-.09.06-.15.14a2,2,0,0,0-.34.26c-.14.13-.3.29-.47.48l-.56.58a3.84,3.84,0,0,1-.57.52,4.63,4.63,0,0,1-1.46.88,8.09,8.09,0,0,1-1.68.46c-.55.09-1.05.16-1.49.2l-.84.09a1,1,0,0,0-.37.13.82.82,0,0,0-.13.24A12.93,12.93,0,0,1,210,47.89a16.41,16.41,0,0,1-2.27,3.46,22.32,22.32,0,0,1-3,2.88,36.15,36.15,0,0,1-3.26,2.36c-1.1.71-2.16,1.33-3.2,1.87s-2,1-2.75,1.38a67.11,67.11,0,0,1-6.45,2.4q-3.24,1-6.26,1.72c-2,.47-3.91.86-5.72,1.16s-3.43.53-4.87.7-2.68.3-3.68.36l-2.15.12h-1a87.84,87.84,0,0,1-9.63-.37q-4.37-.44-7.73-1c-2.25-.4-4.14-.8-5.69-1.21s-2.71-.73-3.46-1a42.66,42.66,0,0,1-6.46-2.4,47.27,47.27,0,0,1-5.26-2.87,37.31,37.31,0,0,1-4.1-3c-1.16-1-2.15-1.9-3-2.72a19.22,19.22,0,0,1-1.88-2.14c-.44-.6-.72-1-.85-1.15-.18-.54-.09-.81.28-.83a1.14,1.14,0,0,1,.65.21,39.92,39.92,0,0,0,3.5,2.57c1.23.81,2.4,1.55,3.5,2.22s2.06,1.23,2.89,1.7,1.4.8,1.7,1q3.27,1.38,6.37,2.43t5.91,1.77q2.79.72,5.24,1.2c1.63.31,3.06.57,4.29.75s2.25.31,3.07.38,1.34.11,1.61.11c1.5.17,3,.26,4.35.29s2.76,0,4,0c2.56,0,4.94-.14,7.12-.37s4.11-.47,5.77-.74,3-.53,4.15-.78l2.31-.54a54,54,0,0,0,5.49-1.54q2.53-.86,4.69-1.8c1.43-.62,2.75-1.26,3.95-1.92s2.28-1.29,3.25-1.91,1.84-1.23,2.58-1.78,1.37-1,1.91-1.49a16.24,16.24,0,0,0,1.26-1.14c.31-.32.52-.54.65-.66a7.71,7.71,0,0,0,1.13-1.7,2.79,2.79,0,0,0,.34-1.47,3,3,0,0,0-.32-1c-.2-.4-.42-.82-.68-1.26s-.51-.86-.75-1.25l-.59-.92a2.27,2.27,0,0,1-.52-.83,5,5,0,0,1,0-.59c.06-.2.15-.57.26-1.1s.27-1.14.48-1.82c.08-.24.21-.38.4-.4a.82.82,0,0,1,.52.33,6.34,6.34,0,0,1,.62.76c.2.3.4.61.6.94s.36.6.5.8a2.48,2.48,0,0,0,1.22,1,4.22,4.22,0,0,0,1.71.26,9.48,9.48,0,0,0,1.53-.13c.56-.1,1.09-.19,1.6-.3a4.09,4.09,0,0,0,1.56-.87,15.64,15.64,0,0,0,1.49-1.45c.47-.52.91-1,1.31-1.57a15.3,15.3,0,0,1,1-1.24,4.15,4.15,0,0,1,.71-.65,3,3,0,0,1,.63-.37,3.6,3.6,0,0,1,.52-.18l.41-.13.65,0c.37,0,.82-.08,1.35-.16l1.79-.23,2-.23,1.82-.21,1.4-.17A13.92,13.92,0,0,0,229,29.65a10.75,10.75,0,0,0-3-.48,10,10,0,0,0-1.71.2,7.51,7.51,0,0,0-1.38.42,10.32,10.32,0,0,0-1,.46l-.56.3a1,1,0,0,1-.53.28c-.2,0-.31-.06-.31-.26a1.9,1.9,0,0,1,.1-.57A8.53,8.53,0,0,1,222,27.72a8.63,8.63,0,0,1,1.73-1.56,7.77,7.77,0,0,1,1.9-.93A6.22,6.22,0,0,1,227.48,24.93ZM133.87,45.72a1.25,1.25,0,0,1,.65.37c.14.14.28.27.41.38l.38.33,1,.83a.85.85,0,0,1,.22.57,1.28,1.28,0,0,1-.19.63,4.31,4.31,0,0,1-.31.44c-.14.2-.29.41-.46.63s-.32.43-.46.62a1.91,1.91,0,0,0-.25.37,1,1,0,0,1-.73.31h0l-.13-.07-.32-.18c-.18-.1-.37-.23-.59-.38s-.43-.34-.66-.54a7.92,7.92,0,0,1-.58-.59.67.67,0,0,1-.2-.72,3.23,3.23,0,0,1,.4-.94,8.32,8.32,0,0,1,.66-1l.55-.72A.91.91,0,0,1,133.87,45.72Zm5.35-1c.06,0,.14.06.25.16l.37.37.83.64.61.51a1.48,1.48,0,0,1,.37.39.85.85,0,0,1,0,1.07,2.16,2.16,0,0,1-.26.49c-.13.21-.29.42-.46.65s-.34.43-.49.6-.26.29-.33.35a.69.69,0,0,1-.3.31.79.79,0,0,1-.31.09c-.1,0-.16,0-.16-.09A1.9,1.9,0,0,1,139,50l-.55-.4a7.27,7.27,0,0,1-.68-.54c-.23-.2-.46-.41-.66-.61a.72.72,0,0,1-.18-.77,3.63,3.63,0,0,1,.41-.94,8.35,8.35,0,0,1,.65-.91l.53-.64C138.83,44.85,139.06,44.67,139.22,44.67Zm24.43-3.81a.29.29,0,0,1,.35.26,1.52,1.52,0,0,1,0,.6,1.76,1.76,0,0,1-.46,1,1.7,1.7,0,0,1-.55.45l-3.12,1.17c-.89.32-1.87.69-2.92,1.09l-3,1.15-2.51,1c-.71.28-1.18.48-1.38.58a.75.75,0,0,1-.28.15.27.27,0,0,1-.27-.24,1.38,1.38,0,0,1,0-.54,3,3,0,0,1,.13-.58,1.74,1.74,0,0,1,.15-.39,2,2,0,0,1,.16-.37.31.31,0,0,1,.3-.18l1-.39,2.29-.87,3-1.14,3-1.17c1-.37,1.79-.69,2.48-1l1.25-.51a.71.71,0,0,1,.26-.09ZM172,10.07a.33.33,0,0,1,.36.31,4.17,4.17,0,0,1,0,.61,2,2,0,0,1-.2.57,3.18,3.18,0,0,1-.29.45,2.16,2.16,0,0,1-.31.3c-.1.09-.17.13-.21.13l-.79.27-2,.73c-.81.29-1.72.64-2.75,1l-3.17,1.23L159.45,17l-2.91,1.14-2.21.87-1.11.45a.26.26,0,0,1-.17.09h-.14a.31.31,0,0,1-.34-.23,1.37,1.37,0,0,1,0-.54,3.26,3.26,0,0,1,.14-.6l.12-.38a2,2,0,0,0,.21-.28.73.73,0,0,1,.31-.25s.29-.12.82-.32l2-.77c.82-.31,1.75-.68,2.79-1.09l3.21-1.26,3.26-1.26,2.89-1.11c.86-.33,1.58-.59,2.16-.8s.92-.34,1-.4a.61.61,0,0,1,.26-.14Zm5,.55a.31.31,0,0,1,.31.19.94.94,0,0,1,.09.43,5.72,5.72,0,0,0,.37,1.53,6.08,6.08,0,0,0,.77,1.3,3.4,3.4,0,0,1,.65,1.27,2.94,2.94,0,0,1,.06,1,2.25,2.25,0,0,1-.2.7c-.09.17-.16.29-.2.35a.69.69,0,0,0-.23.41c0,.14,0,.27,0,.39s.05.26.13.72.19,1.05.34,1.77.3,1.52.49,2.4l.54,2.65c.17.88.34,1.71.5,2.5s.31,1.44.43,2a25.19,25.19,0,0,1,.63,3.78,21.15,21.15,0,0,1,.07,3,11.85,11.85,0,0,1-.33,2.31c-.16.64-.29,1.19-.4,1.64a1.59,1.59,0,0,1-.84,1,6.15,6.15,0,0,1-1.43.55,9.83,9.83,0,0,1-1.42.28l-.8.11a3,3,0,0,1-.47.12c-.14,0-.22.12-.27.28a36.52,36.52,0,0,1-2.27,5.09,21.91,21.91,0,0,1-2.2,3.32,10.84,10.84,0,0,1-2.06,2,7.61,7.61,0,0,1-1.88,1,6.17,6.17,0,0,1-1.63.34c-.5,0-.95.07-1.34.11a24.86,24.86,0,0,1-3.92-.48c-1.26-.25-2.4-.53-3.43-.84a21.72,21.72,0,0,1-2.55-.91c-.68-.3-1.12-.51-1.33-.63s-.41-.46-.32-.69a.55.55,0,0,1,.57-.36.13.13,0,0,1,.11.07.13.13,0,0,0,.11.06c.94.3,1.73.54,2.36.69a15.07,15.07,0,0,0,1.76.32,14.72,14.72,0,0,0,1.66.09h2.09a13,13,0,0,0,4.15-1,16,16,0,0,0,3.2-1.83,13.07,13.07,0,0,0,2.33-2.22,22.27,22.27,0,0,0,1.53-2.15,12.11,12.11,0,0,0,.88-1.66,2.86,2.86,0,0,1,.34-.71.39.39,0,0,0-.09-.28,6.72,6.72,0,0,1-1.11-.86A4.2,4.2,0,0,1,172,41a2.9,2.9,0,0,1-.28-.56c-.05-.15-.09-.27-.11-.35a3.68,3.68,0,0,1,0-.45c0-.21,0-.46.07-.73s.06-.57.09-.87.07-.56.11-.81c.15-.45.28-.68.4-.68s.32.26.46.77c0,0,0,.1.13.19a.94.94,0,0,0,.24.18,5.76,5.76,0,0,0,1.76.75,6.9,6.9,0,0,0,1.66.2,7.58,7.58,0,0,0,2.17-.32,9.48,9.48,0,0,0,1-.35,2.13,2.13,0,0,1,.18-.22c.06-.06.06-.16,0-.31s0-.28-.14-.78-.22-1.12-.38-1.86-.34-1.56-.53-2.46-.36-1.77-.53-2.6-.33-1.57-.47-2.23-.22-1.11-.26-1.35l-.15-.79c-.08-.42-.18-.92-.28-1.49s-.22-1.18-.35-1.82-.26-1.23-.37-1.8-.21-1-.29-1.44-.14-.65-.16-.76-.08-.49-.12-.8a2.42,2.42,0,0,0-.28-.86,4.13,4.13,0,0,1-.57-1.72,3.62,3.62,0,0,1,.2-1.44,6.07,6.07,0,0,1,.62-1.25l.71-1.09C176.68,10.7,176.78,10.62,176.9,10.62ZM171,17.39a.54.54,0,0,1,.43.24,1,1,0,0,1,.18.62s0,.13,0,.26,0,.29.05.48l.06.57a5.44,5.44,0,0,1,0,.57,3.4,3.4,0,0,1-.31,1.5,2.91,2.91,0,0,1-.75,1,2.56,2.56,0,0,1-1,.49,4.87,4.87,0,0,1-1,.17,1.56,1.56,0,0,1-1-.24h-.39a.2.2,0,0,0-.14.06,6.28,6.28,0,0,1-1.7,1,4,4,0,0,1-1.16.23,2.16,2.16,0,0,1-.67-.12,1.89,1.89,0,0,1-1-1.22,3.05,3.05,0,0,1,0-1.41,5.15,5.15,0,0,1,.47-1.25l.43-.77c.09-.14.16-.22.22-.24l.15,0c.17,0,.25.1.25.3a.47.47,0,0,1,0,.28c0,.12-.07.26-.12.41s-.1.32-.15.5a1.71,1.71,0,0,0-.08.47A1,1,0,0,0,164,22a.93.93,0,0,0,.73.32,2,2,0,0,0,.85-.21,3.66,3.66,0,0,0,1-.87l0-1.72a.62.62,0,0,1,.17-.4,3.35,3.35,0,0,0,.38-.52c.08-.21.19-.31.31-.31s.31.19.31.56a7.69,7.69,0,0,1,.09,1,3.51,3.51,0,0,0,.09.77.66.66,0,0,0,.43.43,1.72,1.72,0,0,0,.71.09,1.65,1.65,0,0,0,1.17-.4l.18-.14c.05,0,.07-.1.07-.23a1.5,1.5,0,0,0,0-.6,2.83,2.83,0,0,0-.19-.6.92.92,0,0,1-.09-.32.71.71,0,0,1,.09-.29,1.82,1.82,0,0,0,.11-.28,8.13,8.13,0,0,1,.35-.77A.22.22,0,0,1,171,17.39ZM192.9,2.56a1.83,1.83,0,0,1,1.23.45,2.54,2.54,0,0,1,.77,1.14A3.42,3.42,0,0,1,195,5.7a3.86,3.86,0,0,1-.63,1.66,7.15,7.15,0,0,1-2.52,2.32,6,6,0,0,1-2.47.66,5.12,5.12,0,0,1-2-.35,7,7,0,0,1-1.17-.57,1.27,1.27,0,0,0-.5-.24.25.25,0,0,0-.27.2.43.43,0,0,1-.16.26l-1.41,1.75a.37.37,0,0,1-.31.22c-.12,0-.23-.1-.31-.28a.47.47,0,0,1-.14-.29,1.26,1.26,0,0,1,.3-.63,14.89,14.89,0,0,1,1.26-2.51,9.2,9.2,0,0,1,.74-1.06c.08-.17.17-.25.27-.25h0c.05,0,.09,0,.13.09a3.75,3.75,0,0,0,.6.39,4.38,4.38,0,0,0,.5.23l.53.2.64.23c.39-.82.75-1.51,1.08-2.08a14.86,14.86,0,0,1,.92-1.4,5.41,5.41,0,0,1,.83-.87,5.34,5.34,0,0,1,.86-.57A2,2,0,0,1,192.9,2.56Zm-4.37,9.81c.15,0,.26.16.36.48a2.1,2.1,0,0,1,0,1,17.21,17.21,0,0,0,.16,2.79c.12.91.3,1.92.55,3,.06.36.15.89.28,1.58s.26,1.45.43,2.29.32,1.72.49,2.63.33,1.78.49,2.59.3,1.52.42,2.15.2,1.07.26,1.34a35.32,35.32,0,0,1,.44,5c0,1.44,0,2.67-.12,3.67a17.37,17.37,0,0,1-.35,2.39c-.15.58-.26,1-.34,1.21s-.32.46-.46.46-.13-.08-.2-.26a1.49,1.49,0,0,1,0-.78q-.06-2.16-.12-3.51c0-.9-.09-1.68-.15-2.32s-.14-1.23-.22-1.74-.2-1.11-.34-1.78-.24-1.34-.41-2.23-.36-1.85-.56-2.88-.39-2.08-.58-3.15-.39-2.1-.59-3.06-.36-1.83-.49-2.59-.24-1.34-.32-1.75a12.36,12.36,0,0,1-.05-3.08,9.83,9.83,0,0,1,.69-2.58,3,3,0,0,1,.36-.74A.5.5,0,0,1,188.53,12.37ZM190,7.91a4.23,4.23,0,0,0,1.34-.21,5.18,5.18,0,0,0,1.11-.51,4.17,4.17,0,0,0,.76-.57,2.64,2.64,0,0,0,.36-.37.32.32,0,0,0,.11-.26c0-.09,0-.16,0-.2A3.28,3.28,0,0,0,193,5a1.15,1.15,0,0,0-.75-.29,2.15,2.15,0,0,0-1.3.73,9.59,9.59,0,0,0-1.53,2.4A4.73,4.73,0,0,0,190,7.91Zm12.49,19c.2,0,.43.16.68.47a4.57,4.57,0,0,0,.77.67c.2.19.4.36.59.53a1.29,1.29,0,0,1,.36.37.71.71,0,0,1,.23.55,1.53,1.53,0,0,1-.2.64,1.89,1.89,0,0,1-.29.45l-.49.6-.5.59a2.16,2.16,0,0,0-.29.4,1.11,1.11,0,0,1-.71.24l-.15,0-.32-.26c-.16-.13-.34-.29-.56-.46s-.43-.37-.66-.59-.43-.41-.61-.6a.65.65,0,0,1-.16-.7,3.15,3.15,0,0,1,.43-.89,9.61,9.61,0,0,1,.7-.91c.25-.3.45-.54.59-.73A1.2,1.2,0,0,1,202.53,26.92Zm16.7,26a.34.34,0,0,1,.36.34,4.78,4.78,0,0,1,0,.64,1.65,1.65,0,0,1-.46.93l-.46.46a3.63,3.63,0,0,0-.65.26l-1.56.68-2.23.93c-.84.35-1.69.72-2.56,1.11s-1.74.77-2.61,1.14l-2.37,1-1.82.78c-.5.23-.83.37-1,.43a2.48,2.48,0,0,1-.4.16.27.27,0,0,1-.29-.23,1.92,1.92,0,0,1,0-.54,3.76,3.76,0,0,1,.1-.6c.05-.2.09-.32.11-.38a1.35,1.35,0,0,1,.52-.62L205,59l2.63-1.1,3.43-1.46,3.5-1.51,2.83-1.23,1.43-.65a.3.3,0,0,1,.2-.09ZM207.7,19a.39.39,0,0,1,.26.09,2.28,2.28,0,0,1,.23.22,1,1,0,0,1,.35.35c.07.13.15.28.23.45s.47.65.79,1.15.64,1.08,1,1.74a19.48,19.48,0,0,1,1,2.18,16.85,16.85,0,0,1,.69,2.51,11.79,11.79,0,0,1,.18,2.66,8.9,8.9,0,0,1-.52,2.64c-.14.15-.25.22-.31.22s-.14-.09-.18-.28a5,5,0,0,1-.09-.58,11.47,11.47,0,0,0-.48-3.86,21.53,21.53,0,0,0-1.32-3.4A19.23,19.23,0,0,0,208,22.57c-.47-.66-.76-1.08-.89-1.24a1,1,0,0,1-.14-1,8.36,8.36,0,0,0,.42-1C207.47,19.12,207.57,19,207.7,19ZM223.37,7.36a4.13,4.13,0,0,1,0,.58,1.57,1.57,0,0,1-.31,1,2,2,0,0,1-.43.43,8.25,8.25,0,0,0-1,.43l-2.24,1.12c-.9.47-1.88,1-2.92,1.53l-3,1.57-2.49,1.3c-.72.38-1.17.62-1.35.73a.32.32,0,0,1-.22.17h-.18a.25.25,0,0,1-.25-.2,1.6,1.6,0,0,1-.06-.46,2.94,2.94,0,0,1,0-.51,1.07,1.07,0,0,1,.1-.34.84.84,0,0,1,.14-.41.8.8,0,0,1,.33-.33,4.06,4.06,0,0,0,.56-.29l1.42-.74c.58-.29,1.23-.63,1.95-1l2.25-1.19c.78-.38,1.54-.77,2.29-1.16s1.44-.76,2.06-1.1,1.16-.62,1.6-.84.73-.37.88-.43l.37-.19A.33.33,0,0,1,223.37,7.36Zm2,7.29a9.87,9.87,0,0,1,1.43,0c.48.05.92.1,1.33.17s.78.11,1.1.17a4.72,4.72,0,0,0,.72.07c.41.08.62.21.64.39a4.78,4.78,0,0,1,0,.57l-.07.24c0,.06,0,.15-.07.25s-.08.22-.14.37a2,2,0,0,1-.4.57c-.21.21-.43.42-.68.63s-.49.4-.74.58a2.76,2.76,0,0,1-.58.37,4.24,4.24,0,0,0-.89.37c-.35.18-.74.38-1.17.58a12.88,12.88,0,0,1-1.36.56,5,5,0,0,1-1.38.27c-.31,0-.41-.06-.32-.26a1.55,1.55,0,0,1,.47-.54,3.68,3.68,0,0,1,.68-.46c.39-.22.84-.49,1.34-.8s1-.61,1.52-.9a8.58,8.58,0,0,0,1.17-.79,8.63,8.63,0,0,0-1.41-.14c-.52,0-1.09,0-1.73-.07a1.24,1.24,0,0,0-.4-.07,2.78,2.78,0,0,0-1.17.24,5.05,5.05,0,0,0-.9.5,4.2,4.2,0,0,0-.65.57c-.17.2-.31.35-.41.45l-.4.15a.62.62,0,0,1-.39-.09.26.26,0,0,1-.11-.18s0-.14.06-.34a4.08,4.08,0,0,1,.25-.71,5.6,5.6,0,0,1,.51-.88,4.73,4.73,0,0,1,.88-.94,3.29,3.29,0,0,1,1.46-.75A7.8,7.8,0,0,1,225.39,14.65Zm1.07,23.81c.25,0,.4-.06.46-.17a.61.61,0,0,0,.05-.41,1.55,1.55,0,0,0-.2-.51c-.1-.18-.19-.31-.25-.42-.43-.53-.81-1-1.13-1.32a1.66,1.66,0,0,0-1.27-.52l-.15,0a1.09,1.09,0,0,1-.31,0l-.58.28-.83.38c-.29.13-.55.27-.79.4a1.1,1.1,0,0,0-.41.32,4.81,4.81,0,0,0,.8.57,8.77,8.77,0,0,0,1.23.63,10.85,10.85,0,0,0,1.52.53,5.73,5.73,0,0,0,1.65.18Zm27.47-28.12c.17,0,.27.07.33.27a2.35,2.35,0,0,1,.07.6,5,5,0,0,0,.39,1.6,5.57,5.57,0,0,0,.93,1.38,2.78,2.78,0,0,1,.47,1.21,2.33,2.33,0,0,1-.1.9,1.93,1.93,0,0,1-.33.64,3.55,3.55,0,0,0-.31.42,1.07,1.07,0,0,0-.23.38,1.54,1.54,0,0,0-.05.39,7.56,7.56,0,0,1,.22.86l.46,2.14.6,2.9c.21,1.07.42,2.13.63,3.17s.4,2,.58,2.94.34,1.65.46,2.2c.39,2.15.65,3.89.77,5.21a22.88,22.88,0,0,1,.13,3.22,7.56,7.56,0,0,1-.3,1.92c-.15.46-.31.9-.47,1.31a2.33,2.33,0,0,1-1,1.07,6.52,6.52,0,0,1-1.53.67c-.53.15-1,.27-1.47.35l-.86.15-.43.13c-.09,0-.17.11-.25.27a41.49,41.49,0,0,1-2.46,5.68A22.21,22.21,0,0,1,247.76,56a10.57,10.57,0,0,1-2.29,2.14,8.44,8.44,0,0,1-2.1,1,7,7,0,0,1-1.83.34l-1.45.06a26.71,26.71,0,0,1-4.37-.46c-1.39-.27-2.66-.55-3.78-.86a25.62,25.62,0,0,1-2.83-.92,15.83,15.83,0,0,1-1.51-.68c-.31-.23-.42-.45-.34-.68a.55.55,0,0,1,.59-.33h.43c1,.36,1.86.64,2.58.83s1.39.31,2,.4,1.24.13,1.88.17,1.38,0,2.24.07a16.1,16.1,0,0,0,4.85-1.23,16.58,16.58,0,0,0,3.58-2.11,13.32,13.32,0,0,0,2.49-2.49,18.47,18.47,0,0,0,1.59-2.43,12,12,0,0,0,.83-1.86c.15-.49.23-.75.23-.77s.08-.24-.06-.24A11.18,11.18,0,0,1,249,45a4.25,4.25,0,0,1-.71-.74,1.45,1.45,0,0,1-.24-.55q0-.24-.06-.39a3.44,3.44,0,0,1,0-1.08c.07-.51.15-1,.23-1.41a.64.64,0,0,1,.08-.39.23.23,0,0,1,.17-.07c.06,0,.13.06.21.2a1.27,1.27,0,0,0,.25.29,8.3,8.3,0,0,0,2.23,1,8.68,8.68,0,0,0,2,.26,5.69,5.69,0,0,0,1.49-.18,11.17,11.17,0,0,0,1.13-.39,5,5,0,0,0,.77-.38,2.26,2.26,0,0,1,.39-.22c.2-.08.25-.23.15-.46,0,0-.05-.34-.17-.91s-.25-1.26-.43-2.09-.36-1.74-.55-2.74-.39-1.95-.57-2.87-.35-1.75-.49-2.46-.24-1.22-.28-1.51L253,18.53c0-.29-.09-.59-.14-.91a2.19,2.19,0,0,0-.38-.91,4.68,4.68,0,0,1-.54-1.92,4.46,4.46,0,0,1,.24-1.57,6.75,6.75,0,0,1,.65-1.32,11.47,11.47,0,0,0,.69-1.22C253.67,10.46,253.81,10.34,253.93,10.34ZM248.73,9a.3.3,0,0,1,.36.29,4,4,0,0,1,0,.54,2.08,2.08,0,0,1-.47,1.11c-.26.29-.42.43-.48.43l-1.05.48-2.49,1.1-3.26,1.43L238,15.85l-2.73,1.23-1.47.68a.6.6,0,0,1-.4.15.23.23,0,0,1-.29-.2,1.62,1.62,0,0,1,0-.54c0-.2.07-.4.11-.6s.07-.32.09-.38a.74.74,0,0,1,.14-.39.88.88,0,0,1,.32-.29,11.34,11.34,0,0,0,1.11-.46l2.55-1.14,3.31-1.46L244.15,11l2.72-1.19,1.37-.6A.7.7,0,0,1,248.73,9Zm-1.38,8.37a.54.54,0,0,1,.41.29,1.07,1.07,0,0,1,.2.63s0,.17,0,.37,0,.44,0,.71l0,.8c0,.26,0,.49,0,.67a5,5,0,0,1-.54,1.51,3.09,3.09,0,0,1-.82.92,2.37,2.37,0,0,1-.95.45,4.4,4.4,0,0,1-.89.11,2.32,2.32,0,0,1-.93-.16l-.27,0h-.16a.52.52,0,0,0-.21.07,7.62,7.62,0,0,1-1.48.83,3.93,3.93,0,0,1-1,.24,4.17,4.17,0,0,1-.59,0,2,2,0,0,1-.4-.12,2,2,0,0,1-.83-1.2,4.83,4.83,0,0,1-.09-1.42,4.46,4.46,0,0,1,.28-1.27,2.78,2.78,0,0,1,.37-.76q.24-.24.3-.24c.15,0,.22.1.22.31v.33A5.31,5.31,0,0,1,240,21a1.06,1.06,0,0,0,0,.58,2.18,2.18,0,0,0,.31.56,1.59,1.59,0,0,0,.51.4,1.51,1.51,0,0,0,.68.15A2.33,2.33,0,0,0,243,22a5.24,5.24,0,0,1,0-.87,3.19,3.19,0,0,0-.05-.94,2.79,2.79,0,0,1,.52-1.42.65.65,0,0,1,.28-.27.58.58,0,0,1,.22-.07c.28,0,.39.16.3.47a4,4,0,0,1,.08,1.38,3.19,3.19,0,0,0,.05,1.14.43.43,0,0,0,.26.32,1.43,1.43,0,0,0,.51.08,3.79,3.79,0,0,0,.81-.09,1.36,1.36,0,0,0,.51-.19l.18-.2a.43.43,0,0,0,.07-.26,1.39,1.39,0,0,0,0-.37,5,5,0,0,0-.06-.51l-.09-.5a1,1,0,0,0-.11-.34,1.13,1.13,0,0,1-.11-.43,1.58,1.58,0,0,1,.08-.31.47.47,0,0,1,.12-.32,3,3,0,0,0,.34-.67A.5.5,0,0,1,247.35,17.36ZM268.45,4a1.79,1.79,0,0,1,1.17.4,2,2,0,0,1,.68,1.06,3.43,3.43,0,0,1,0,1.51,4,4,0,0,1-.72,1.67,7.73,7.73,0,0,1-2.48,2,5.51,5.51,0,0,1-2.29.55,4.07,4.07,0,0,1-2.06-.43,7.32,7.32,0,0,1-1.23-.77c-.16-.16-.27-.24-.31-.24a.29.29,0,0,0-.29.18.79.79,0,0,1-.17.28l-.41.69a5.06,5.06,0,0,1-.33.51.34.34,0,0,1-.27.15.3.3,0,0,1-.34-.3,12.69,12.69,0,0,1,1.14-2.74,10.79,10.79,0,0,1,.64-1,.45.45,0,0,1,.22-.15.14.14,0,0,1,.12,0s.06,0,.12,0a6,6,0,0,0,1.1.91,6.65,6.65,0,0,0,1.06.48c.43-.78.8-1.43,1.12-2a13.72,13.72,0,0,1,.88-1.3,5.48,5.48,0,0,1,.77-.85,2.72,2.72,0,0,1,.8-.51A2.32,2.32,0,0,1,268.45,4Zm-2.92,7.87c.2,0,.35.16.43.46a2.47,2.47,0,0,1,0,1,16.63,16.63,0,0,0,.17,2.77c.13.88.28,1.88.45,3q.15.55.36,1.59c.15.68.3,1.45.45,2.3s.32,1.74.49,2.66.34,1.79.5,2.6.28,1.53.39,2.16.21,1.06.27,1.3a38.56,38.56,0,0,1,.87,6.05,32.9,32.9,0,0,1,0,4.47,19.35,19.35,0,0,1-.42,2.94c-.17.73-.29,1.2-.35,1.4a.45.45,0,0,1-.49.37c-.29,0-.39-.35-.31-1.05q.09-2.17,0-3.93c-.06-1.17-.16-2.23-.29-3.17s-.28-1.8-.43-2.55-.3-1.47-.42-2.13-.24-1.34-.41-2.24-.37-1.87-.57-2.91-.42-2.09-.63-3.17-.42-2.1-.6-3.07-.35-1.84-.48-2.6-.22-1.34-.26-1.73a11.74,11.74,0,0,1-.08-3.1,9.8,9.8,0,0,1,.69-2.59,2.17,2.17,0,0,1,.37-.67C265.38,11.91,265.47,11.85,265.53,11.85ZM265.65,9a3.83,3.83,0,0,0,1.3-.23A6.89,6.89,0,0,0,268,8.28a5.48,5.48,0,0,0,.76-.52,2,2,0,0,0,.36-.34.24.24,0,0,0,0-.24.59.59,0,0,1,0-.25,1.28,1.28,0,0,0-1.29-.86,2.24,2.24,0,0,0-1.37.69A6.65,6.65,0,0,0,265,9a1,1,0,0,0,.32.06Zm22.73,41.1c.21,0,.32.11.34.34s0,.44,0,.64a1.55,1.55,0,0,1-.37,1.07,2.17,2.17,0,0,1-.55.5,9,9,0,0,1-.81.4l-2,.91-2.57,1.18-2.65,1.25c-.84.4-1.57.76-2.2,1.08a11.39,11.39,0,0,0-1.24.69l-.37.15c-.14,0-.24-.08-.28-.26a2.58,2.58,0,0,1-.06-.58,3.11,3.11,0,0,1,.06-.62,2.19,2.19,0,0,1,.09-.35,1.72,1.72,0,0,1,.21-.4,1,1,0,0,1,.32-.34s.3-.16.84-.42l2-1,2.61-1.23c.95-.44,1.84-.87,2.7-1.28s1.58-.76,2.21-1a10.85,10.85,0,0,0,1.18-.59l.28-.1A.31.31,0,0,1,288.38,50.12ZM306,22q.32,0,.42.54a5.91,5.91,0,0,1,.11,1.12,24,24,0,0,0,.59,3.14c.28,1.07.6,2.11,1,3.14s.76,2,1.17,3,.78,1.86,1.11,2.68a8.81,8.81,0,0,1,.82,3.18,13.23,13.23,0,0,1-.17,2.94,15.32,15.32,0,0,1-.6,2.31c-.24.63-.42,1.08-.54,1.32a2.15,2.15,0,0,1-.77,1.06,2.1,2.1,0,0,1-1.05.33h-.3a11.18,11.18,0,0,1-4.17-1.33,11.69,11.69,0,0,1-3.19-2.73,18,18,0,0,1-2,2.76A7.79,7.79,0,0,1,296.64,47a6.42,6.42,0,0,1-1.73.7,17.07,17.07,0,0,1-1.76.33,3.72,3.72,0,0,1-2-.42,4.45,4.45,0,0,1-1.34-1.12A5.58,5.58,0,0,1,289,45a9.18,9.18,0,0,1-.45-1.52,12.66,12.66,0,0,1-.18-1.26c0-.36-.05-.58-.05-.66,0-.27-.05-.4-.15-.4s-.13.1-.21.31a7.26,7.26,0,0,1-1.65,1.59,9.24,9.24,0,0,1-3.75,1.51,10.29,10.29,0,0,1-1.77.16,9.12,9.12,0,0,1-1.85-.11,5.57,5.57,0,0,1-.95-.23c-.37,0-.57-.14-.6-.29a3.43,3.43,0,0,1,0-.85,15.53,15.53,0,0,1,1-2.66,13.76,13.76,0,0,1,1.34-2.15,14.35,14.35,0,0,1,1.51-1.71,13.51,13.51,0,0,1,4.51-2.94c.44-.17.82-.33,1.15-.48a2.38,2.38,0,0,0,.77-.49c.06-.25.12-.58.18-1a12.23,12.23,0,0,1,.31-1.39c.14-.24.28-.37.4-.37a.31.31,0,0,1,.28.17.74.74,0,0,1,.09.36,3.14,3.14,0,0,1,.14.72c.05.4.1.89.15,1.48s.12,1.22.19,1.92.14,1.37.21,2,.14,1.25.2,1.78a6.77,6.77,0,0,0,.22,1.23,5.33,5.33,0,0,0,1.4,3.16,3.18,3.18,0,0,0,2.23.84,4.42,4.42,0,0,0,1.61-.31,9.34,9.34,0,0,0,1.53-.72,7.5,7.5,0,0,0,1.24-.91,5.71,5.71,0,0,0,.79-.83,3.91,3.91,0,0,0,.47-2.44,25.66,25.66,0,0,0-.49-3.48c-.26-1.26-.54-2.55-.86-3.86a24.59,24.59,0,0,1-.63-3.69,4.37,4.37,0,0,1,.08-1.83c.15-.63.32-1.21.5-1.74.15-.37.3-.55.46-.55s.47.34.59,1c0,.21.12.68.24,1.42s.28,1.62.47,2.64.39,2.13.61,3.29.47,2.3.74,3.37.54,2,.83,2.85a5.06,5.06,0,0,0,.86,1.69,4.93,4.93,0,0,0,1.11,1.06,8.56,8.56,0,0,0,1.54.88,13.22,13.22,0,0,0,1.66.6,4.72,4.72,0,0,0,1.44.2,1.18,1.18,0,0,0,.83-.26c.19-.18.2-.45,0-.82-.4-1.11-.82-2.18-1.28-3.23s-.91-2.11-1.36-3.2-.85-2.22-1.24-3.4a34.74,34.74,0,0,1-1-3.86,6.07,6.07,0,0,1,0-1.07,9.24,9.24,0,0,1,.17-1.31c.1-.46.21-.92.34-1.39a6.67,6.67,0,0,1,.48-1.24C305.67,22.23,305.87,22,306,22ZM282.33,40.61l1.46-.06a12.79,12.79,0,0,0,1.53-.14c.51-.07,1-.15,1.39-.24a2.9,2.9,0,0,0,1-.36l.29-.1c.09,0,.13-.18.11-.45a4.68,4.68,0,0,0-.08-.69c-.05-.3-.11-.6-.17-.91l-.21-1.14c0-.2-.08-.29-.22-.27h-.06s0,0,0,.06a6.46,6.46,0,0,1-.88.32,16.19,16.19,0,0,0-1.81.74,21.27,21.27,0,0,0-2.16,1.17,8.21,8.21,0,0,0-1.92,1.61l-.15.22c0,.06.06.09.31.09a4,4,0,0,0,.66.11A9.67,9.67,0,0,0,282.33,40.61Zm21-36.2a.41.41,0,0,1,.46.37,1,1,0,0,1-.06.61,2.54,2.54,0,0,1-.51,1.05,3.54,3.54,0,0,1-.88.55l-.8.28c-.47.16-1.08.39-1.81.67l-2.51,1L294.34,10c-1,.39-2,.78-3,1.18s-1.89.77-2.72,1.09l-2.19.86c-.62.25-1.06.42-1.3.53a1,1,0,0,1-.3.1.59.59,0,0,1-.17,0,.33.33,0,0,1-.35-.22,1.3,1.3,0,0,1-.06-.5,2.61,2.61,0,0,1,.09-.57,1.66,1.66,0,0,1,.17-.43,1.54,1.54,0,0,1,.43-.62,3.4,3.4,0,0,1,.52-.31c.58-.18,1.39-.47,2.43-.86L291.34,9l3.81-1.44c1.31-.5,2.52-1,3.62-1.4s2-.81,2.78-1.1a11.24,11.24,0,0,0,1.39-.58A.67.67,0,0,1,303.34,4.41Zm-1.67,8c.17,0,.33.11.5.35a1.48,1.48,0,0,1,.24.84c0,.05,0,.18,0,.4s0,.5.07.8,0,.63.07.94a4.37,4.37,0,0,0,.14.79,4.54,4.54,0,0,1-.77,1.83,4.32,4.32,0,0,1-1.18,1.09,3.87,3.87,0,0,1-1.33.52,6.53,6.53,0,0,1-1.12.13c-.39,0-.59,0-.61-.07h-.31a.53.53,0,0,0-.2,0,.59.59,0,0,1-.23.05,15.69,15.69,0,0,1-2.09,1.12,3.87,3.87,0,0,1-1.33.32,2.31,2.31,0,0,1-.8-.15,2,2,0,0,1-1.32-1,2.73,2.73,0,0,1-.24-1.43,3.69,3.69,0,0,1,.35-1.37c.19-.42.34-.72.44-.91s.28-.34.4-.34.12.05.17.16a.74.74,0,0,1,.08.34.43.43,0,0,1,.05.32,2.34,2.34,0,0,0-.05.6,1,1,0,0,0,.37.94,1.73,1.73,0,0,0,1.17.38,2.92,2.92,0,0,0,1.17-.28,3.68,3.68,0,0,0,1.29-1c0-.23,0-.54,0-.95a5.6,5.6,0,0,0-.06-1.17,3.38,3.38,0,0,1,.61-1.73c.13-.2.23-.3.31-.3a.44.44,0,0,1,.36.17.63.63,0,0,1,.13.41,9.11,9.11,0,0,1,.05,1.65,4.46,4.46,0,0,0,.08,1.33c.08.37.4.56.95.56a2.79,2.79,0,0,0,1.09-.22,5.26,5.26,0,0,0,.63-.27,1,1,0,0,0,.26-.19,1.14,1.14,0,0,0,.14-.37,2.26,2.26,0,0,0-.06-.43c0-.18-.08-.38-.12-.58s-.08-.4-.12-.59-.09-.32-.13-.43a2.56,2.56,0,0,1-.06-.44,1.41,1.41,0,0,1,.06-.36l.52-1.2C301.39,12.51,301.51,12.41,301.67,12.41ZM320.38.78a1.63,1.63,0,0,1,1.27.43,2,2,0,0,1,.59,1.21,4.66,4.66,0,0,1-.12,1.71,7.73,7.73,0,0,1-.82,2A6.33,6.33,0,0,1,318.88,8a6.2,6.2,0,0,1-2.35.51A5.41,5.41,0,0,1,315,8.36a9.24,9.24,0,0,1-1.32-.45,5.81,5.81,0,0,1-1-.49l-.54-.34a.88.88,0,0,1-.32-.2.29.29,0,0,0-.2-.1.39.39,0,0,0-.34.18l-.18.28a2.63,2.63,0,0,0-.34.51l-.37.63L310,9c-.12.18-.2.33-.26.43a.31.31,0,0,1-.31.15c-.11,0-.16-.1-.16-.3a7.08,7.08,0,0,1,.57-2.06,9,9,0,0,1,.85-1.45,4.87,4.87,0,0,1,.8-.89l.43-.37c.1-.1.17-.16.21-.16a.34.34,0,0,1,.25.1,4,4,0,0,0,.62.66,3.2,3.2,0,0,0,.53.37c.18.09.35.17.53.24s.36.16.57.27c.55-.82,1-1.52,1.46-2.1a12.45,12.45,0,0,1,1.17-1.4,7.49,7.49,0,0,1,1-.87,6.73,6.73,0,0,1,1-.59A2.88,2.88,0,0,1,320.38.78Zm-5.08,8.7c.21,0,.37.17.48.5a2.12,2.12,0,0,1,.08,1A14.85,14.85,0,0,0,316,14c.14.93.33,2,.55,3.15.08.39.2.95.36,1.66s.32,1.52.52,2.4l.6,2.77c.2,1,.39,1.87.57,2.71s.33,1.59.46,2.24.22,1.13.26,1.42a40.16,40.16,0,0,1,1,6.37,36.9,36.9,0,0,1,0,4.72,21.44,21.44,0,0,1-.43,3.07c-.19.75-.3,1.23-.34,1.43a.63.63,0,0,1-.23.39.56.56,0,0,1-.24.08.44.44,0,0,1-.36-.23,1.07,1.07,0,0,1-.06-.79c0-1.54-.05-2.92-.13-4.14s-.18-2.33-.31-3.33-.25-1.92-.38-2.74-.25-1.58-.35-2.28-.26-1.42-.47-2.37-.42-1.95-.64-3-.46-2.17-.71-3.29S315.16,22,315,21s-.41-1.91-.57-2.71-.28-1.41-.34-1.84a9.69,9.69,0,0,1-.12-3.27,17.5,17.5,0,0,1,.64-2.73C314.81,9.8,315.06,9.48,315.3,9.48Zm2-3.13a3.83,3.83,0,0,0,1.37-.24,7.22,7.22,0,0,0,1.11-.5,5.79,5.79,0,0,0,.78-.53,1.88,1.88,0,0,0,.4-.37,1.31,1.31,0,0,0,.09-.52A1.5,1.5,0,0,0,319.61,3a3,3,0,0,0-1.69.72,9,9,0,0,0-2,2.3A3.46,3.46,0,0,0,317.3,6.35ZM497.84,21.79c.12,0,.24.09.34.26a4.14,4.14,0,0,0,.34.48,40.28,40.28,0,0,1,4.68,5.87,30.41,30.41,0,0,1,2.61,5.08,17.13,17.13,0,0,1,1.09,4.21A15.78,15.78,0,0,1,507,41a10.64,10.64,0,0,1-.43,2.29,10.39,10.39,0,0,1-.44,1.22,1.7,1.7,0,0,1-.73.52,3.44,3.44,0,0,1-1.27.25,10.42,10.42,0,0,1-3-.54,24.48,24.48,0,0,1-4-1.71,2.9,2.9,0,0,0-.41.45c-.2.23-.42.51-.66.81s-.5.64-.76,1-.46.66-.63,1a1.66,1.66,0,0,1-.73.57,2.78,2.78,0,0,1-1,.17,6.92,6.92,0,0,1-1.38-.15,9,9,0,0,1-1.42-.42,6.38,6.38,0,0,1-1.17-.57,1.56,1.56,0,0,1-.64-.64,20.73,20.73,0,0,1-4.31,2,12.42,12.42,0,0,1-3.23.59,5.09,5.09,0,0,1-2.26-.43,4.89,4.89,0,0,1-1.42-1,3.79,3.79,0,0,1-.75-1.14,3.48,3.48,0,0,1-.24-.76.87.87,0,0,0-.31-.43c-.15-.11-.3-.08-.46.09Q464.53,46.46,454,48.35t-21.07,3.14q-10.56,1.24-21.28,1.84t-21.91.45q-11.21-.15-23-1.08T342.1,50c-.11,0-.16,0-.17-.05s-.05,0-.11,0-.19,0-.2.13,0,.17,0,.23a.86.86,0,0,0-.2.47,4.53,4.53,0,0,1-.26.83,1.44,1.44,0,0,1-.46.67,2.29,2.29,0,0,1-.62.22h-.15a10.8,10.8,0,0,1-1.41-.16c-.7-.1-1.46-.23-2.29-.4s-1.66-.34-2.48-.55a14.35,14.35,0,0,1-2-.61,9.61,9.61,0,0,1-1.65,2.78,12.61,12.61,0,0,1-4.53,3.34,24.35,24.35,0,0,1-2.34.86c-.74.22-1.41.4-2,.54l-1.4.32a.14.14,0,0,0-.12,0s-.06,0-.12,0a.63.63,0,0,1-.48-.14.32.32,0,0,1-.09-.32.88.88,0,0,1,.21-.37.9.9,0,0,1,.45-.24,28.35,28.35,0,0,0,3.48-1.88c1.16-.74,2.25-1.48,3.26-2.22s1.87-1.42,2.61-2.06,1.26-1.1,1.57-1.41a3.15,3.15,0,0,1-.48-1.22,6.28,6.28,0,0,1-.07-1.29,5.79,5.79,0,0,1,.17-1.2,9.07,9.07,0,0,1,.26-.94,6.42,6.42,0,0,1,.58-1.24,7.15,7.15,0,0,1,1.14-1.46,6.6,6.6,0,0,1,1.68-1.22,4.64,4.64,0,0,1,2.2-.51l.14,0a.42.42,0,0,0,.16,0,3.06,3.06,0,0,1,1.36.64c.53.39,1.11.84,1.75,1.35s1.32,1,2.06,1.6a14.56,14.56,0,0,0,2.28,1.42,142.56,142.56,0,0,0,14.41,2.41q7.86.95,16.56,1.36t18,.34q9.27-.08,18.61-.6t18.53-1.45q9.19-.91,17.7-2.23T463.73,43q7.59-1.62,13.75-3.52a1,1,0,0,1,.54-.23l.41,0q.58,0,.66.48c.05.31-.13.68-.57,1.09a3.83,3.83,0,0,0-.49.75,1.22,1.22,0,0,0-.11.52.63.63,0,0,0,.17.4l.31.33a4.35,4.35,0,0,0,.43.21,5.76,5.76,0,0,0,.85.31,8.57,8.57,0,0,0,2.47.34c.25,0,.48,0,.7,0a3.34,3.34,0,0,0,.66-.13c1.21-.26,2.15-.5,2.83-.72A6.11,6.11,0,0,0,488,42a4.7,4.7,0,0,0,1.15-1.23l1.34-2a.6.6,0,0,1,.22-.3.4.4,0,0,1,.21-.07c.16,0,.28.11.34.32a2.39,2.39,0,0,1,.09.63,3.18,3.18,0,0,1-.23,1,5.23,5.23,0,0,0-.29,1.15c-.08.37.13.66.63.86a12.58,12.58,0,0,0,2.14.62,1.81,1.81,0,0,0,.67.12,1.1,1.1,0,0,0,.85-.26,2.22,2.22,0,0,0,.35-.51,5.93,5.93,0,0,0,.47-.84c.2-.42.43-.88.69-1.39s.5-1,.75-1.43a6.38,6.38,0,0,1,.65-1c.2-.31.38-.46.52-.46a.35.35,0,0,1,.35.23.62.62,0,0,1,.05.44,3.1,3.1,0,0,0-.09.73,7.79,7.79,0,0,1-.19,1.24,16.42,16.42,0,0,0,2.85,1,10.61,10.61,0,0,0,2.07.24,4.17,4.17,0,0,0,1.85-.34,11.08,11.08,0,0,0-1-3.61,31.44,31.44,0,0,0-1.8-3.43A26.42,26.42,0,0,0,500.9,31l-.84-1.11a.49.49,0,0,0-.31-.16.47.47,0,0,0-.31.16.24.24,0,0,0-.15,0,.17.17,0,0,1-.13,0,.65.65,0,0,1-.39-.22c-.07,0-.17-.11-.31-.29s-.31-.37-.48-.6-.35-.44-.54-.66l-.43-.48a1.53,1.53,0,0,1-.32-.93,8.87,8.87,0,0,1,0-1.36,12.57,12.57,0,0,1,.22-1.46c.1-.49.19-.92.28-1.29C497.42,22.08,497.64,21.79,497.84,21.79ZM338.1,47.66a2.69,2.69,0,0,0-.37-.86c-.23-.39-.47-.8-.74-1.22s-.53-.81-.78-1.17l-.51-.69a2.71,2.71,0,0,0-.48-.35,1.35,1.35,0,0,0-.72-.17,1.43,1.43,0,0,0-.45.09,1.76,1.76,0,0,0-.57.4c-.27.25-.51.5-.74.75a5,5,0,0,0-.52.71,1,1,0,0,0-.15.6.47.47,0,0,0,.37.4,8.37,8.37,0,0,0,1,.4c.46.17,1,.33,1.52.51a16.37,16.37,0,0,0,1.67.43A8,8,0,0,0,338.1,47.66Zm8.95,7.75a.3.3,0,0,1,.34.28,5.35,5.35,0,0,1,0,.58,1.22,1.22,0,0,1-.13.59,4.25,4.25,0,0,1-.27.46,2.67,2.67,0,0,1-.31.34,1.06,1.06,0,0,1-.22.15,8.62,8.62,0,0,1-.81.35l-2,.83-2.58,1.13-2.68,1.15c-.85.36-1.59.68-2.23,1l-1.23.55a1,1,0,0,1-.55.25.24.24,0,0,1-.3-.22,1.86,1.86,0,0,1,0-.53,3.09,3.09,0,0,1,.12-.59,1.81,1.81,0,0,1,.15-.38,1,1,0,0,1,.23-.34c.1-.08.17-.16.24-.22s.34-.12.9-.35,1.25-.54,2.06-.91l2.67-1.2,2.72-1.21,2.21-1,1.19-.51A.8.8,0,0,1,347.05,55.41ZM484.52,15.17a10,10,0,0,1,1.85.19c.63.12,1.23.26,1.78.41s1.05.31,1.48.45a5.4,5.4,0,0,0,.95.25c.43.1.66.24.69.43a1.29,1.29,0,0,1,0,.58,1.08,1.08,0,0,1-.06.28l-.31.74a3.11,3.11,0,0,1-.52.57c-.25.21-.53.42-.83.63s-.61.39-.9.56a2.34,2.34,0,0,1-.7.33,8.5,8.5,0,0,0-1,.31c-.4.14-.85.28-1.34.43s-1,.27-1.54.4a6.94,6.94,0,0,1-1.54.18h-.21a.5.5,0,0,1-.45-.55.8.8,0,0,1,.45-.71,4.41,4.41,0,0,1,.89-.39l1.68-.56c.62-.21,1.25-.43,1.87-.67a7.57,7.57,0,0,0,1.43-.66c-.47-.14-1-.27-1.63-.4s-1.26-.25-1.93-.4l-.56-.14a3.09,3.09,0,0,0-.55,0,3,3,0,0,0-1.2.28,5,5,0,0,0-.94.55,3.55,3.55,0,0,0-.69.63,5,5,0,0,1-.43.45.64.64,0,0,1-.4.15.17.17,0,0,1-.17-.14.93.93,0,0,1-.05-.29,2.1,2.1,0,0,1,.09-.37,5,5,0,0,1,.34-.75,5.25,5.25,0,0,1,.71-1,5.86,5.86,0,0,1,1.17-1,3.26,3.26,0,0,1,1.17-.6A5.68,5.68,0,0,1,484.52,15.17Zm25.75,39.47a.33.33,0,0,1,.37.32q0,.33,0,.63a1.8,1.8,0,0,1-.54,1,3.6,3.6,0,0,1-.6.47s-.39.11-1.06.32l-2.51.82-3.26,1.09-3.35,1.14c-1.07.36-2,.68-2.77,1s-1.27.48-1.48.58a.6.6,0,0,0-.2,0,.59.59,0,0,1-.23,0,.29.29,0,0,1-.3-.25,1.26,1.26,0,0,1,0-.55,3.5,3.5,0,0,1,.15-.62c.08-.2.12-.34.14-.4a4.86,4.86,0,0,0,.31-.41.43.43,0,0,1,.34-.24,11,11,0,0,0,1.08-.35c.67-.24,1.52-.52,2.55-.86l3.34-1.11,3.4-1.15,2.76-1,1.48-.49a.36.36,0,0,1,.2-.06ZM502,49.23l.41.41a2.86,2.86,0,0,0,.42.36c.2.2.42.4.64.58a2.66,2.66,0,0,1,.4.37,1.34,1.34,0,0,1,0,1.29l-.38.46c-.18.21-.35.42-.54.63l-.49.6a2.78,2.78,0,0,0-.28.4.78.78,0,0,1-.41.28.54.54,0,0,1-.36,0,1.77,1.77,0,0,1-.35-.21c-.18-.13-.38-.28-.6-.47s-.46-.39-.71-.61-.47-.45-.68-.68a.64.64,0,0,1-.13-.72,4.24,4.24,0,0,1,.44-1,9.33,9.33,0,0,1,.69-1c.26-.31.47-.55.63-.71.33-.31.57-.44.73-.4A1.33,1.33,0,0,1,502,49.23Z"/></svg>